<svg width="467" height="92" viewBox="0 0 467 92" fill="none" xmlns="http://www.w3.org/2000/svg">
<g clip-path="url(#clip0_2499_83872)">
<path d="M426.672 69.0868C429.126 69.271 431.567 69.4798 434.009 69.7008V26.3652H426.672V69.0868ZM308.663 53.0125L299.105 26.3652H292.134V73.4461C294.576 73.1023 297.017 72.7585 299.471 72.4392V46.8357L307.967 71.3831C310.641 71.0761 313.314 70.7814 316 70.499V26.3652H308.663V53.0125ZM323.056 69.8236C329.819 69.2096 336.606 68.6938 343.43 68.3009V61.0312C339.072 61.2891 334.726 61.5838 330.392 61.9277V50.9249C333.237 50.9004 336.984 50.8144 340.305 50.8512V43.5816C337.656 43.5693 333.395 43.6184 330.392 43.6553V33.7086H343.43V26.3652H323.056V69.8236ZM348.13 33.7086H355.808V67.7115C358.25 67.6132 360.691 67.5395 363.145 67.4781V33.7086H370.823V26.3652H348.13V33.7086ZM375.523 67.2694H382.86V50.4828H392.809V43.2132H382.86V33.7086H396.007V26.3652H375.523V67.2694ZM466.334 26.3652H458.277L452.967 38.7556L448.194 26.3652H440.259L448.792 48.4935L439.477 70.2043C442.053 70.4621 444.617 70.7323 447.193 71.0147L452.613 58.3911L457.972 72.3041C460.767 72.6602 463.55 73.0409 466.334 73.4461H466.346L456.788 48.6531L466.334 26.3652ZM408.043 26.3652H400.707V67.6378C407.372 67.8711 414.013 68.2027 420.629 68.6447V61.3751C416.442 61.0926 412.255 60.8593 408.043 60.6628V26.3652V26.3652Z" fill="#E50914"/>
</g>
<g clip-path="url(#clip1_2499_83872)">
<path d="M15.2658 81.3991C16.5686 79.9773 18.1034 78.371 19.0171 77.6149C18.7602 77.5932 18.3533 77.5426 17.9107 77.4738C16.9577 78.3565 15.7405 79.6408 14.6519 80.8238C13.2706 82.3361 12.132 83.6529 12.132 83.6601C12.1141 83.671 12.107 83.6963 12.0892 83.7108C11.1861 83.964 9.65491 84.3909 8.6341 84.6695C7.12429 85.0928 5.76796 84.9915 5.76796 85.99C5.76796 85.99 4.20462 86.8401 4.56868 88.1063C4.56868 88.1063 7.70608 85.5667 10.3902 85.1362C10.3902 85.1362 8.75188 86.2179 8.89822 87.6831C8.89822 87.6831 11.1076 84.333 13.6882 86.3662C13.6882 86.3662 12.5389 84.7816 13.0172 83.9098C13.4348 83.4395 14.2878 82.4663 15.2658 81.3991ZM10.2974 41.8355C10.1617 41.897 10.0225 41.9187 9.87621 41.9187C9.41934 41.9187 8.99102 41.6365 8.80542 41.1771C8.78758 41.1409 8.76616 41.0939 8.75902 41.0468L8.41994 41.1626C8.70548 42.0092 9.56925 42.4722 10.3438 42.1973C10.5401 42.1249 10.715 42.02 10.8506 41.8861C11.2789 41.481 11.4503 40.8153 11.2397 40.1858L10.458 40.4571C10.508 40.5729 10.5401 40.6995 10.5401 40.8334C10.5401 40.9492 10.5187 41.0577 10.4758 41.1554L10.8328 41.376C10.7721 41.4701 10.6971 41.5642 10.6043 41.6438C10.5187 41.727 10.4152 41.7885 10.2974 41.8355ZM41.9034 39.2705L26.4769 43.0836C26.4769 43.0764 26.4769 43.0728 26.4769 43.0655L26.4805 43.0836L56.6124 29.868L31.7809 32.9503L45.0729 23.1101L30.8279 28.7465L32.9802 24.3727L22.7899 31.8108L22.7042 31.6552L37.1491 0L13.6596 28.1822L13.5133 12.8176L4.89349 33.3555L4.44376 27.2994L0.19631 43.0511L0.203449 43.0474V43.0511C0.203449 43.0511 0.774534 42.6205 1.5455 42.3854C1.60618 42.3673 1.67042 42.3528 1.7311 42.3347C1.73824 42.3347 1.74538 42.3275 1.75609 42.3275C1.81677 42.313 1.88101 42.2986 1.94169 42.2877C1.94883 42.2877 1.95954 42.2805 1.97024 42.2805C2.03449 42.2696 2.09517 42.2588 2.16655 42.2552C2.16655 42.2479 2.16655 42.2479 2.16655 42.2479C2.23437 42.2407 2.29862 42.2407 2.3593 42.2334C2.37714 42.2334 2.38428 42.2334 2.39856 42.2334C2.45924 42.2262 2.52705 42.2262 2.59844 42.2334C2.60201 42.2334 2.60558 42.2334 2.62342 42.2407C2.68053 42.2407 2.74121 42.2443 2.80189 42.2552C2.8126 42.2588 2.8233 42.2588 2.83401 42.2588C2.90183 42.266 2.96251 42.2805 3.02318 42.2949C3.04103 42.2949 3.05531 42.3022 3.06244 42.3022C3.12669 42.3203 3.19451 42.3384 3.26589 42.3601C4.71859 42.8919 5.95356 42.3601 5.95356 42.3601C5.95356 42.3601 7.32417 43.25 7.32417 43.9953H7.3206C7.3206 43.9989 7.3206 43.9989 7.3206 43.9989C7.3206 43.9989 5.52168 44.1074 5.52168 43.2971C5.52168 43.2971 3.21949 42.4686 0 43.6769L6.79235 46.6362C6.78878 46.6037 6.42828 45.323 6.8209 44.878C6.94583 44.7224 7.16355 44.6718 7.5062 44.7876C7.63113 44.831 7.72036 44.8201 7.77747 44.7659C8.30572 44.2123 5.74298 39.4188 5.74298 39.4188C5.74298 39.4188 3.44436 39.1946 1.4527 41.3037C1.32063 41.4448 1.185 41.5931 1.05651 41.7559V41.7487C1.05651 41.7559 1.05651 41.7559 1.05651 41.7559C1.25996 41.3978 1.906 40.3558 2.98035 39.4514C3.62639 38.9015 4.43305 38.4095 5.39319 38.1346C5.65731 37.4942 5.3218 37.9103 5.86433 37.5738C5.8679 37.5738 5.8679 37.5666 5.8679 37.5666C6.12132 35.8771 7.06718 31.5213 10.3259 27.7987C10.5437 27.5527 10.7685 27.3031 11.0077 27.0643C11.0077 27.0643 10.1725 28.6561 10.1725 29.7631C10.1974 29.7342 11.0219 28.4824 12.1605 27.3356V27.332C12.1605 27.332 12.1463 27.3501 12.132 27.3826C11.9214 27.8421 10.3688 31.203 10.5294 32.1834C10.533 32.1906 10.5365 32.1978 10.5365 32.2051L13.6775 29.2892C13.6775 29.2892 13.6668 29.2964 13.6632 29.3C13.5704 29.4267 10.715 33.3411 10.433 34.6832C10.433 34.6905 10.433 34.6905 10.433 34.6941L15.1873 31.2536L15.1837 31.2609C15.1695 31.2898 14.5841 32.111 14.3414 32.5632C14.1665 32.8888 14.1415 32.9974 14.1415 33.0299L14.1486 33.0553L16.7078 31.941C16.7078 31.941 16.5972 32.0748 16.4187 32.2738L15.4657 33.2542L15.2301 33.5075L13.499 35.2802L13.4669 35.32L12.1498 36.6766L11.3039 37.5485C11.3039 37.5485 10.615 38.2793 10.5294 38.6555C10.4473 39.0281 10.8363 39.2561 10.8363 39.2561H10.8328C11.1861 39.455 11.4681 39.7625 11.6359 40.1315C11.7287 40.3522 11.7786 40.5982 11.7786 40.8587C11.7786 41.3688 11.5716 41.8319 11.229 42.1647C10.8899 42.5012 10.4152 42.711 9.89048 42.711C9.4122 42.711 8.98746 42.5373 8.65551 42.2552C8.71262 42.3347 9.64777 43.525 11.3682 42.5988L13.4919 41.0287L13.5847 40.9564L15.7798 39.3284C16.2973 39.947 16.7863 40.6959 17.2289 41.5388C15.9261 42.7942 13.7025 44.9721 11.4824 47.3562C10.1582 48.7707 8.83755 50.2684 7.71322 51.683L8.5056 47.9133L8.56985 47.6022C8.56985 47.6022 8.56628 47.6022 8.56628 47.6094C8.55557 47.613 8.552 47.613 8.54486 47.6166C8.54486 47.6203 8.53416 47.6275 8.53416 47.6275C8.52702 47.6311 8.51631 47.6311 8.51274 47.6456C8.50917 47.6456 8.50203 47.6492 8.50203 47.6564C8.49132 47.6601 8.48062 47.6673 8.47348 47.6709C8.46991 47.6745 8.46634 47.6854 8.45206 47.689C8.44492 47.6926 8.43065 47.7071 8.41994 47.7107C8.4128 47.7216 8.40566 47.7252 8.39495 47.736C8.38425 47.7469 8.38068 47.7541 8.36283 47.7577C8.35212 47.7686 8.34141 47.7831 8.33071 47.7903C8.32 47.7975 8.30572 47.8156 8.29144 47.8192C8.28074 47.8373 8.26646 47.8518 8.25575 47.8554C8.23791 47.8663 8.22363 47.8807 8.20935 47.8952C8.19864 47.9024 8.18437 47.9205 8.17366 47.9314C8.15581 47.9459 8.1344 47.9567 8.12369 47.9784C8.10227 47.9856 8.09513 48.0001 8.07372 48.011C8.06301 48.0327 8.04159 48.0472 8.02018 48.0652C8.00947 48.0797 7.98806 48.0942 7.97378 48.1087C7.95236 48.1267 7.92738 48.1484 7.9131 48.1702C7.89525 48.1846 7.88455 48.1991 7.86313 48.2099C7.84885 48.2353 7.82387 48.2606 7.79175 48.2823C7.7739 48.2968 7.76319 48.3076 7.74891 48.3221C7.73464 48.3366 7.72036 48.351 7.70251 48.3619C7.70251 48.3691 7.69894 48.3691 7.69894 48.3691C7.67753 48.3908 7.64897 48.4198 7.62399 48.4487C7.60257 48.4632 7.58473 48.4849 7.57045 48.5066C7.5419 48.5283 7.52048 48.5536 7.49549 48.579C7.47408 48.6007 7.45266 48.6224 7.43482 48.6405C7.41697 48.6658 7.39555 48.6839 7.38485 48.702C7.37771 48.7092 7.36343 48.7201 7.35629 48.7309C7.35629 48.7345 7.34915 48.7418 7.33845 48.749C7.32417 48.7635 7.30989 48.7779 7.29205 48.796C7.27063 48.8213 7.25278 48.8394 7.23137 48.8648C7.2278 48.8756 7.22423 48.8792 7.21352 48.8828C7.20638 48.8901 7.19924 48.8973 7.18854 48.9046C7.17783 48.9263 7.16355 48.9407 7.14571 48.9552C7.12072 48.9914 7.09573 49.0167 7.06361 49.0456C7.0422 49.0782 7.01721 49.0999 6.9958 49.1325C6.97081 49.165 6.93869 49.1976 6.9137 49.2265C6.88872 49.2591 6.8673 49.2844 6.84232 49.3134C6.81019 49.3495 6.78521 49.3857 6.75308 49.4219C6.73167 49.4508 6.70668 49.4798 6.6817 49.5123C6.65314 49.5521 6.62459 49.5847 6.59247 49.6281C6.56748 49.6498 6.54607 49.686 6.52108 49.7149C6.48896 49.762 6.45683 49.8018 6.42114 49.8488C6.39616 49.8813 6.37474 49.9067 6.35689 49.9356C6.31763 49.9899 6.2748 50.0441 6.23197 50.0984C6.21769 50.1201 6.19628 50.1454 6.18557 50.1635C6.12846 50.2431 6.06421 50.3263 6.01067 50.4131L6.00353 50.4204C5.94643 50.5036 5.88932 50.5832 5.83578 50.6664C5.8215 50.6917 5.80365 50.717 5.78581 50.7424C5.74655 50.8039 5.70371 50.869 5.66088 50.9341C5.63947 50.9667 5.62162 50.9956 5.60021 51.0282C5.56094 51.0897 5.52525 51.1475 5.48242 51.2091C5.461 51.2488 5.44316 51.2814 5.42174 51.3176C5.38962 51.3791 5.34679 51.4442 5.30752 51.5093C5.28968 51.5491 5.26469 51.5853 5.24685 51.6251C5.20758 51.6866 5.17546 51.7553 5.13263 51.8168C5.11121 51.8494 5.08623 51.8964 5.06481 51.9326C5.02555 52.005 4.98986 52.0701 4.9506 52.1388C4.93275 52.1786 4.91133 52.2184 4.88992 52.2618C4.71502 52.5874 4.5437 52.9239 4.37237 53.2892C4.37237 53.2965 4.37237 53.2965 4.37237 53.2965L3.4979 53.4448C3.67279 52.989 3.84412 52.5729 4.03329 52.1822L2.60915 54.2154L4.03329 54.0743C2.81616 56.9142 1.92027 60.626 1.92027 65.9152L3.08029 65.1699C4.10111 71.074 8.90536 73.668 8.90536 73.668L8.89822 73.6318C11.5431 75.3864 14.7626 76.6128 18.3104 77.1012C18.803 77.1627 19.2027 77.2025 19.292 77.2097C19.2955 77.2097 19.2955 77.2097 19.2955 77.2061C19.3598 77.2133 19.4169 77.2242 19.4776 77.2242C21.3979 77.3942 23.2646 77.3255 25.0528 77.0614C25.0492 77.1301 25.0421 77.1989 25.0421 77.2676C25.0421 78.4361 25.6846 79.3984 26.5019 79.478C24.8244 82.3686 23.4645 86.2106 23.4609 86.2287C23.3967 86.406 23.261 86.7316 23.129 86.8293C22.7149 86.9233 22.6828 86.9451 22.2259 87.0898L22.2331 87.0825C22.0796 86.9306 20.7554 86.6773 19.4026 87.1911C19.4062 87.1983 19.4062 87.1983 19.4133 87.2055C18.6495 87.5456 17.9071 88.1642 17.3895 89.1917C17.9392 88.7431 18.9636 88.0123 19.7952 88.1136C18.8101 88.6852 17.104 89.7705 16.9077 91.337C16.9077 91.337 22.8291 87.1259 25.7452 87.9038C25.7452 87.9038 25.3205 88.3921 26.327 90.2119L26.7839 88.5224C27.3122 86.8799 25.2848 86.6375 24.4317 86.605C24.4353 86.5941 24.4353 86.5869 24.4353 86.5833C24.4353 86.5833 24.5281 86.3192 24.6959 85.8851C25.1991 84.5718 26.3699 81.6668 27.6512 79.5902C27.6727 79.5468 27.6905 79.4997 27.7048 79.4563L27.4656 79.1235C27.4692 79.1235 27.637 78.9354 27.7298 78.7943C27.9011 78.523 28.1331 78.0599 28.1402 77.4485C28.1402 76.971 28.026 76.3632 27.6869 75.6143L28.4472 75.2598C28.4865 75.3574 28.5293 75.4479 28.5685 75.5347C28.5793 75.5673 28.59 75.5962 28.6007 75.6252C28.6221 75.6867 28.6471 75.7518 28.6685 75.8133C28.6792 75.8422 28.6899 75.8748 28.7042 75.9073C28.7256 75.9761 28.7434 76.0376 28.7684 76.1027C28.772 76.1208 28.7827 76.1461 28.7898 76.1714L33.1229 74.8437L32.1628 74.0406H32.1557L32.1128 73.9972L32.0914 73.9791L15.7048 58.8533C15.7084 58.8533 15.712 58.8606 15.712 58.8606L15.7084 58.8533C20.2628 61.0999 25.5775 63.7119 34.5899 67.9447C43.4703 72.0942 49.0919 74.5109 51.9937 75.7156C52.0187 75.7301 52.0437 75.7409 52.0651 75.7518H52.0687C52.4899 75.9254 52.8504 76.0738 53.1573 76.2004C53.7784 76.4464 54.3602 76.6743 54.3923 76.6888C54.4423 76.6598 54.4994 76.6454 54.5494 76.62L21.4193 53.5895L41.9034 39.2705ZM18.9779 46.3685L14.038 50.1744L17.5823 42.2732V42.266C18.1462 43.478 18.6174 44.8635 18.9814 46.3649H18.9779V46.3685ZM36.6101 73.6137L36.7351 74.2142H36.7315L42.503 77.6656L43.9629 78.5266L43.1633 76.4428C47.9248 77.8645 51.8046 77.9441 54.3816 76.7141C54.3816 76.7141 54.378 76.7141 54.378 76.7177C49.895 78.0599 38.7624 74.2576 36.6101 73.6137Z" fill="#DB0D15"/>
<path d="M5.52885 43.3083C5.52885 44.115 7.32777 44.0101 7.32777 44.0101C7.32777 43.2685 5.96073 42.3749 5.96073 42.3749C5.96073 42.3749 4.72576 42.9031 3.26592 42.3749C2.68056 42.1614 2.07022 42.2302 1.5491 42.393C0.856659 42.8597 0.00360107 43.699 0.00360107 43.699C3.22666 42.4798 5.52885 43.3083 5.52885 43.3083ZM17.5823 42.2736L14.038 50.1747L18.9779 46.3653C18.621 44.8639 18.1391 43.4855 17.5823 42.2736ZM54.4102 76.7072C54.4102 76.7072 43.3168 72.4889 15.712 58.8754L32.1628 74.0626H32.17C33.6441 73.444 34.6792 73.0027 36.7315 74.2182L36.6102 73.6177C38.7589 74.258 49.9307 78.0783 54.4102 76.7072ZM27.6977 75.6327C28.0367 76.3816 28.151 76.9894 28.151 77.4669C28.1474 78.0783 27.9118 78.5414 27.7405 78.8127C27.6477 78.9502 27.4764 79.142 27.4764 79.142L27.9689 79.8257C28.0225 79.7895 28.9826 79.0551 28.9826 77.4669C28.9826 76.8483 28.8363 76.1175 28.4543 75.2746L27.6977 75.6327ZM17.7965 77.4561C18.5781 77.5827 19.292 77.6478 19.292 77.6478L19.3277 77.2282C19.3277 77.2282 18.6281 77.1667 17.8643 77.04L17.7965 77.4561ZM17.2325 41.5573C16.7899 40.7107 16.3009 39.9655 15.7834 39.3468L11.3753 42.6209C9.59426 43.5724 8.65554 42.27 8.65554 42.27C8.98035 42.5522 9.4158 42.7294 9.89765 42.7294C10.9435 42.7294 11.7858 41.8937 11.7894 40.8735C11.7894 40.6167 11.7358 40.3707 11.643 40.1536C11.4788 39.7774 11.1897 39.4699 10.8399 39.2745L10.8471 39.2709C10.8471 39.2709 10.458 39.043 10.5401 38.6703C10.6222 38.2941 11.3147 37.5633 11.3147 37.5633L11.3111 37.5669L13.4776 35.3348L13.5098 35.295L15.4764 33.269L16.4294 32.2886C16.6079 32.0933 16.715 31.963 16.715 31.963L14.1522 33.0701C14.1522 33.0701 14.1023 33.0411 14.3521 32.5781C14.602 32.1186 15.2016 31.2684 15.2016 31.2684L10.4438 34.7089C10.7186 33.3595 13.6918 29.3112 13.6918 29.3112L10.5508 32.2235C10.3402 31.2069 12.1749 27.3504 12.1749 27.3504C11.0184 28.5117 10.1868 29.7852 10.1868 29.7852C10.1868 28.6709 11.0184 27.0791 11.0184 27.0791C7.20641 30.9465 6.14634 35.7834 5.88221 37.5814C5.32897 37.9323 5.66805 37.5054 5.40392 38.1494C2.84475 38.8838 1.39205 41.1955 1.06011 41.7707C3.13743 39.1732 5.75015 39.4337 5.75015 39.4337C5.75015 39.4337 8.8697 45.2799 7.51337 44.8096C6.14277 44.3285 6.79951 46.6547 6.79951 46.6547L4.24391 45.5368C4.66508 46.3833 5.49316 48.3731 5.01844 50.4424C4.49376 51.2528 3.97264 52.2368 3.50864 53.456L4.38311 53.3077C4.55444 52.9351 4.72219 52.5986 4.89352 52.2766C4.9185 52.2368 4.94349 52.1934 4.96133 52.1536C4.99703 52.0849 5.03272 52.0198 5.07555 51.951C5.09697 51.9112 5.12195 51.8678 5.14337 51.828C5.17906 51.7665 5.21118 51.7014 5.25045 51.6399C5.27543 51.5965 5.30042 51.5603 5.31826 51.5205C5.35752 51.459 5.38965 51.3939 5.43248 51.336C5.45033 51.2962 5.47174 51.2637 5.49316 51.2311C5.53242 51.1696 5.57168 51.1045 5.61094 51.043C5.62879 51.0104 5.64664 50.9779 5.67162 50.9453C5.70731 50.8838 5.75015 50.8187 5.79655 50.7572C5.81439 50.7282 5.8251 50.6993 5.84652 50.6776C5.90006 50.5944 5.95716 50.5148 6.01427 50.4352C6.01427 50.4316 6.02141 50.4244 6.02141 50.4244C6.07852 50.3375 6.13563 50.2616 6.18917 50.182C6.20701 50.1639 6.22486 50.1349 6.24271 50.1132C6.28554 50.0553 6.32123 50.0047 6.36406 49.9468C6.38548 49.9179 6.40332 49.8926 6.43188 49.8672C6.46043 49.8238 6.49256 49.7768 6.52825 49.7298C6.5568 49.7008 6.57822 49.6719 6.59963 49.6429C6.63176 49.6031 6.66031 49.5633 6.69244 49.5272C6.71385 49.4982 6.74241 49.4693 6.76382 49.4403C6.79595 49.4005 6.82093 49.368 6.84948 49.3318C6.87804 49.3029 6.89588 49.2739 6.92087 49.245C6.94942 49.2088 6.97798 49.1762 7.00653 49.1473C7.02795 49.1184 7.05293 49.093 7.07435 49.0677C7.1029 49.0315 7.13146 49.0062 7.15287 48.9736C7.17786 48.9519 7.19927 48.9194 7.22426 48.8977C7.24924 48.8687 7.27423 48.8434 7.30278 48.8145C7.3242 48.7855 7.34205 48.7711 7.36346 48.7421C7.39202 48.7132 7.417 48.6878 7.44199 48.6589C7.45983 48.6444 7.48125 48.6191 7.50266 48.5902C7.52408 48.5685 7.54906 48.5395 7.57762 48.5178C7.59189 48.4997 7.60974 48.4816 7.63116 48.4599C7.65614 48.4346 7.68113 48.402 7.70611 48.3803C7.72753 48.3659 7.73824 48.3478 7.75608 48.3369C7.79891 48.2935 7.83104 48.261 7.86673 48.2212C7.88815 48.2103 7.89885 48.1958 7.9167 48.1814C7.93455 48.1597 7.95596 48.1379 7.97738 48.1199C7.98809 48.1054 8.01307 48.0873 8.02378 48.0764C8.04519 48.0584 8.06661 48.0439 8.07732 48.0222C8.09873 48.0113 8.10587 48.0005 8.12729 47.9896C8.138 47.9679 8.15941 47.9571 8.17726 47.9426C8.18797 47.9317 8.19867 47.9136 8.21295 47.9064C8.2308 47.8956 8.2415 47.8811 8.25935 47.8666C8.27006 47.863 8.28434 47.8485 8.29504 47.8304C8.30932 47.8268 8.32003 47.8124 8.33431 47.8015C8.34858 47.7943 8.35572 47.7834 8.36643 47.7689C8.38428 47.7653 8.39141 47.7545 8.39855 47.7472C8.40926 47.74 8.4164 47.7328 8.42354 47.7219C8.43425 47.7183 8.44852 47.7074 8.45566 47.7002C8.46994 47.6966 8.47351 47.6857 8.47708 47.6821C8.48422 47.6749 8.49849 47.6713 8.50563 47.6676C8.50563 47.6604 8.51277 47.6568 8.51634 47.6568C8.51991 47.6459 8.53062 47.6459 8.53775 47.6387C8.53775 47.6387 8.54846 47.6315 8.54846 47.6278C8.5556 47.6206 8.55917 47.6206 8.56988 47.6206C8.56988 47.6134 8.57345 47.6134 8.57345 47.6134L8.5092 47.9245L7.71682 51.6942C10.7186 47.9281 15.1481 43.5543 17.2325 41.5573ZM8.4164 41.163L8.75905 41.0472C8.76619 41.0942 8.7876 41.1376 8.80545 41.1774C8.99105 41.6369 9.41937 41.9191 9.87624 41.9191C10.0226 41.9191 10.1618 41.8974 10.2974 41.8359C10.5258 41.7418 10.7079 41.5754 10.8292 41.38L10.4723 41.163C10.5187 41.0653 10.5366 40.9531 10.5366 40.8337C10.5366 40.6999 10.5044 40.5733 10.4545 40.4575L11.2361 40.1862C11.5181 41.0291 11.1219 41.9263 10.3402 42.2012C9.56214 42.4726 8.69837 42.0131 8.4164 41.163Z" fill="black"/>
<path d="M80.6372 47.4939C80.109 47.3528 79.3237 47.2732 78.2993 47.2732H76.0757V60.0077L76.3112 59.8412L78.1387 58.5352L78.203 58.4882V54.885H78.899C80.1875 54.885 81.2369 54.5377 82.0043 53.8575C82.7788 53.1701 83.1714 52.2332 83.1714 51.0682C83.1714 49.9793 82.8038 49.0676 82.0828 48.3477C81.6687 47.9317 81.1869 47.6459 80.6372 47.4939ZM78.7848 53.0471H78.1994V49.1436H78.8561C80.5337 49.1436 81.3832 49.7731 81.3832 51.0321C81.3832 52.3742 80.5123 53.0471 78.7848 53.0471ZM92.4587 54.5774C93.194 54.3676 93.8007 53.9661 94.2683 53.3727C94.7823 52.7252 95.0393 51.9329 95.0393 51.0357C95.0393 49.8852 94.6252 48.9374 93.8079 48.2319C93.0762 47.6025 91.8733 47.2769 90.2422 47.2769H87.9542V60.0113L88.1863 59.8449L90.0209 58.5389L90.0851 58.4918V54.8452H90.185L93.6044 59.8087L93.6865 59.9317L93.8114 59.8412L95.2784 58.7668L95.4033 58.6763L95.3141 58.5533L92.4587 54.5774ZM90.0815 53.0471V52.9205V49.3245V49.1436H90.7383C92.4194 49.1436 93.2653 49.7731 93.2653 51.0321C93.2653 52.3742 92.398 53.0471 90.6669 53.0471H90.0815ZM60.5457 47.6495C59.8247 47.3999 58.836 47.2732 57.6118 47.2732H54.9205V59.863H57.5832C58.8182 59.863 59.789 59.7508 60.4743 59.5157C61.2025 59.2805 61.9163 58.8608 62.5838 58.2675C63.908 57.0737 64.5897 55.4964 64.5897 53.5681C64.5897 51.6543 63.9401 50.0806 62.6623 48.8976C62.027 48.3151 61.3203 47.8955 60.5457 47.6495ZM61.1418 56.7155C60.7206 57.099 60.2423 57.3848 59.7141 57.5585C59.193 57.7321 58.5219 57.8153 57.7224 57.8153H57.0478V49.3209H57.7224C59.2322 49.3209 60.3887 49.6863 61.1525 50.399C62.0127 51.2093 62.4374 52.2693 62.4374 53.5645C62.4374 54.856 62.0056 55.9124 61.1418 56.7155ZM47.1645 49.0893C47.9497 49.0893 48.7243 49.3173 49.4809 49.7659L49.613 49.8418L49.6844 49.7116L50.5731 48.1596L50.6481 48.0293L50.5196 47.9498C49.4845 47.3456 48.3959 47.0381 47.293 47.0381C45.2585 47.0381 43.5809 47.8087 42.3031 49.339C41.2609 50.5943 40.7362 52.0306 40.7362 53.626C40.7362 55.3987 41.368 56.9471 42.6065 58.206C43.8593 59.4542 45.387 60.0873 47.1538 60.0873C48.3245 60.0873 49.456 59.7761 50.5196 59.1647L50.5946 59.1177V58.9911L50.5767 58.9549L49.6844 57.3884L49.6059 57.251L49.4702 57.3414C49.2204 57.5042 48.9777 57.6344 48.7528 57.7285C48.3209 57.9347 47.7891 58.0324 47.1681 58.0324C45.9759 58.0324 44.9515 57.6019 44.1235 56.7481C43.299 55.8979 42.8813 54.8379 42.8813 53.5934C42.8813 52.3345 43.299 51.2564 44.1235 50.3917C44.948 49.5271 45.9688 49.0893 47.1645 49.0893ZM187.141 49.3245L187.18 49.2811L188.865 47.5373L189.118 47.2732H181.919V59.863H187.177L187.22 59.8195L188.869 58.0758L189.111 57.8189H184.046V53.9082H185.61L185.653 53.8611L187.362 52.1246L187.616 51.8605H184.05V49.3245H187.141ZM150.713 49.3245H153.497V60.0077L153.733 59.8412L155.56 58.5352L155.624 58.4882V49.3281H158.405V47.2769H150.709V49.3245H150.713ZM105.686 47.0453C103.905 47.0453 102.356 47.6893 101.089 48.9519C99.8114 50.2181 99.1654 51.752 99.1654 53.5138C99.1654 55.5144 99.8757 57.1641 101.271 58.405C102.535 59.5193 103.991 60.0909 105.587 60.0909C107.385 60.0909 108.945 59.4505 110.219 58.1916C111.49 56.9398 112.136 55.3914 112.136 53.5862C112.136 51.799 111.497 50.2398 110.23 48.97C108.974 47.6929 107.446 47.0453 105.686 47.0453ZM108.724 56.7517C107.878 57.6091 106.832 58.0396 105.608 58.0396C104.491 58.0396 103.477 57.6127 102.62 56.7698C101.75 55.9305 101.314 54.8452 101.314 53.5319C101.314 52.291 101.739 51.2274 102.574 50.3845C103.409 49.5271 104.451 49.0893 105.661 49.0893C106.879 49.0893 107.914 49.5271 108.738 50.3845C109.573 51.2347 109.991 52.3091 109.991 53.5681C109.991 54.809 109.563 55.8834 108.724 56.7517ZM201.829 48.8976C201.193 48.3151 200.479 47.8955 199.705 47.6495C198.984 47.3999 198.002 47.2732 196.771 47.2732H194.08V59.863H196.739C197.977 59.863 198.952 59.7508 199.637 59.5157C200.365 59.2805 201.076 58.8608 201.743 58.2675C203.071 57.0737 203.749 55.4964 203.749 53.5681C203.749 51.6543 203.103 50.077 201.829 48.8976ZM200.305 56.7155C199.88 57.099 199.398 57.3848 198.88 57.5585C198.352 57.7321 197.685 57.8153 196.882 57.8153H196.207V49.3209H196.882C198.395 49.3209 199.548 49.6863 200.319 50.399C201.168 51.2093 201.6 52.2693 201.6 53.5645C201.6 54.856 201.168 55.9124 200.305 56.7155ZM173.738 54.5774C174.47 54.3676 175.08 53.9661 175.548 53.3727C176.066 52.7252 176.315 51.9329 176.315 51.0357C176.315 49.8852 175.901 48.9374 175.084 48.2319C174.342 47.6025 173.149 47.2769 171.518 47.2769H169.223V60.0113L169.459 59.8449L171.293 58.5389L171.361 58.4918V54.8452H171.461L174.873 59.8087L174.963 59.9317L175.088 59.8412L176.555 58.7668L176.672 58.6763L176.59 58.5533L173.738 54.5774ZM171.361 53.0471V49.1436H172.011C173.696 49.1436 174.538 49.7731 174.538 51.0321C174.538 52.3742 173.674 53.0471 171.939 53.0471H171.361ZM144.891 47.3203L140.433 51.9546V47.1358L140.194 47.3094L138.367 48.6118L138.303 48.6588V60.0077L138.545 59.8412L140.373 58.5352L140.433 58.4882V54.6932L140.651 54.4762L144.909 59.8123L144.991 59.9208L145.109 59.8449L146.676 58.7704L146.812 58.6763L146.705 58.5425L142.168 53.0037L147.547 47.5446L147.804 47.2805H144.938L144.891 47.3203ZM118.696 48.6154L118.632 48.6625V55.3697C118.632 56.3863 118.525 57.0954 118.318 57.4933C118.133 57.866 117.811 58.0396 117.326 58.0396C116.973 58.0396 116.587 57.9021 116.173 57.62L116.037 57.5295L115.959 57.667L115.052 59.2479L114.981 59.3782L115.106 59.4578C115.791 59.8702 116.537 60.0873 117.326 60.0873C118.379 60.0873 119.235 59.6965 119.874 58.9441C120.203 58.5606 120.431 58.0867 120.574 57.5331C120.702 57.0556 120.774 56.3465 120.774 55.3734V47.1285L120.531 47.3022L118.696 48.6154ZM131.785 49.3245L131.831 49.2811L133.516 47.5373L133.762 47.2732H126.574V59.863H131.824L131.874 59.8195L133.516 58.0758L133.759 57.8189H128.701V53.9082H130.254L130.293 53.8611L132.003 52.1246L132.256 51.8605H128.698V49.3245H131.785Z" fill="black"/>
<path d="M207.807 51.4402C206.608 51.4402 205.637 50.4525 205.637 49.2406C205.637 48.0142 206.612 47.041 207.807 47.041C209.017 47.041 209.981 48.0178 209.981 49.2406C209.981 50.4525 209.017 51.4402 207.807 51.4402ZM207.807 47.3702C206.783 47.3702 205.965 48.1915 205.965 49.2406C205.965 50.268 206.783 51.1073 207.807 51.1073C208.832 51.1073 209.649 50.268 209.649 49.2406C209.653 48.1915 208.835 47.3702 207.807 47.3702ZM208.403 50.5068L207.757 49.5119H207.329V50.5068H206.983V47.9852H207.996C208.418 47.9852 208.807 48.2855 208.807 48.7522C208.807 49.313 208.314 49.4975 208.171 49.4975L208.835 50.5032H208.403V50.5068ZM207.993 48.2964H207.329V49.1863H207.993C208.207 49.1863 208.443 49.0127 208.443 48.7522C208.443 48.47 208.207 48.2964 207.993 48.2964Z" fill="black"/>
</g>
<rect x="237.414" y="42" width="28" height="2" transform="rotate(45 237.414 42)" fill="black"/>
<rect x="257.213" y="43.4141" width="28" height="2" transform="rotate(135 257.213 43.4141)" fill="black"/>
<defs>
<clipPath id="clip0_2499_83872">
<rect width="174.199" height="47.0809" fill="white" transform="translate(292.134 26.3652)"/>
</clipPath>
<clipPath id="clip1_2499_83872">
<rect width="209.981" height="91.337" fill="white"/>
</clipPath>
</defs>
</svg>
